<svg id="Layer_1" data-name="Layer 1" xmlns="http://www.w3.org/2000/svg" xmlns:xlink="http://www.w3.org/1999/xlink" viewBox="0 0 60 35"><defs><style>.cls-1{fill:none;}.cls-2{fill:#313c53;}.cls-3{fill:#343f51;}.cls-4{fill:#ff4436;}.cls-5{fill:#242d3d;}.cls-6{fill:#e8e8e3;}.cls-7{clip-path:url(#clip-path);}.cls-8{fill:#303947;}.cls-9{clip-path:url(#clip-path-2);}.cls-10{fill:#fff;}.cls-11{clip-path:url(#clip-path-3);}</style><clipPath id="clip-path"><path class="cls-1" d="M42.21,25.6c0,.18-23.61,0-23.61,0s.88-7.53-5.8-7.64c-5.66-.09-5.64,5.4-5.5,7.09a.37.37,0,0,1-.43.39L1.08,24.35a.79.79,0,0,1-.56-.43l-.44-.87a.81.81,0,0,1,0-.77h0a1.67,1.67,0,0,0,.22-1.07L.11,19.36a2.18,2.18,0,0,1,.43-1.6,5.25,5.25,0,0,1,1.4-1.26s-.33-.33.73-.7S8.9,13.31,8.9,13.31l2.17-.4s-1.05.33,0,.92,7,1.31,7.89,1.31,19.22.66,19.22.66-4.14-3.07-5.82-4c0,0-.95-.42-.48-1.1l.48-.68.77.28-.45.82,6.45,4.44s3.8-.33,3.33-.61c-.18-.11.33.17.33.17s10.34.36,12.67,2.67c0,0,3.22.94,4.1,2.16s.15,3.47.15,3.47a1.07,1.07,0,0,1,.28.86c-.06.52-3.26,1.62-6.8,1.79,0,0,1.84-7-4.08-8S41.91,22.77,42.21,25.6Z"/></clipPath><clipPath id="clip-path-2"><path class="cls-1" d="M43.39,24.71,45,24l.94-.39a.19.19,0,0,0,0-.36L45,22.9,44,22.46a.2.2,0,0,1-.11-.26l.31-.73a.19.19,0,0,1,.25-.11l1.07.44.94.39a.19.19,0,0,0,.25-.25L46.27,21l-.68-1.63a.19.19,0,0,1,.11-.25l.73-.31a.2.2,0,0,1,.26.1l.67,1.63.39.94a.19.19,0,0,0,.36,0l.39-.94.44-1.07a.2.2,0,0,1,.25-.1l.74.3a.2.2,0,0,1,.1.26L49.59,21l-.38.94a.2.2,0,0,0,.25.26l.94-.4L52,21.12a.19.19,0,0,1,.25.1l.31.74a.19.19,0,0,1-.11.25l-1.63.68-.94.39a.2.2,0,0,0,0,.36l.94.38,1.07.44a.21.21,0,0,1,.11.26l-.31.73a.19.19,0,0,1-.25.11l-1.07-.44-.94-.39a.19.19,0,0,0-.25.25l.39.94.68,1.63a.19.19,0,0,1-.11.25l-.73.31a.2.2,0,0,1-.26-.1l-.67-1.63-.39-.94a.19.19,0,0,0-.36,0l-.39.94-.44,1.07a.2.2,0,0,1-.25.1l-.74-.3a.19.19,0,0,1-.1-.26l.44-1.06.38-.94a.2.2,0,0,0-.25-.26l-.94.4-1.63.67a.19.19,0,0,1-.25-.1L43.28,25A.19.19,0,0,1,43.39,24.71Z"/></clipPath><clipPath id="clip-path-3"><path class="cls-1" d="M8.21,24.71,9.84,24l.94-.39a.2.2,0,0,0,0-.36l-.94-.38-1.07-.44a.19.19,0,0,1-.1-.26l.3-.73a.19.19,0,0,1,.25-.11l1.07.44.94.39a.19.19,0,0,0,.25-.25L11.09,21l-.68-1.63a.19.19,0,0,1,.11-.25l.73-.31a.2.2,0,0,1,.26.1l.67,1.63.39.94a.19.19,0,0,0,.36,0l.39-.94.44-1.07a.2.2,0,0,1,.25-.1l.74.3a.19.19,0,0,1,.1.26L14.41,21l-.38.94a.2.2,0,0,0,.25.26l.94-.4,1.63-.67a.19.19,0,0,1,.25.1l.31.74a.19.19,0,0,1-.11.25l-1.63.68-.94.39a.19.19,0,0,0,0,.36l.95.38,1.06.44a.21.21,0,0,1,.11.26l-.31.73a.19.19,0,0,1-.25.11l-1.07-.44-.94-.39A.19.19,0,0,0,14,25l.39.94.68,1.63a.19.19,0,0,1-.11.25l-.73.31A.2.2,0,0,1,14,28l-.67-1.63-.39-.94a.19.19,0,0,0-.36,0l-.39.94-.44,1.07a.2.2,0,0,1-.25.1l-.74-.3a.2.2,0,0,1-.1-.26l.44-1.06.38-.94a.2.2,0,0,0-.25-.26l-.94.4-1.63.67a.19.19,0,0,1-.25-.1L8.1,25A.19.19,0,0,1,8.21,24.71Z"/></clipPath></defs><title>icon-convertible</title><g id="convertible"><path class="cls-2" d="M35.87,14.7s-11-.18-12.28-.4-4.37-.62-5.14-.88A1.23,1.23,0,0,0,17.7,13a15.48,15.48,0,0,0-7.3.07s-.14,1.87,7.72,2c6.75.14,20.06.72,20.06.72l-1.51-1.1Z"/><path class="cls-3" d="M26.19,15.38l-.14-.29a2.91,2.91,0,0,0,.24-2.29c-.41-1.27-1.22-.75-1.29-.66a9.84,9.84,0,0,0-.3,1.21,6.9,6.9,0,0,0-.13,2h0l1.62.15Z"/><path class="cls-4" d="M42.21,25.6c0,.18-23.61,0-23.61,0s.88-7.53-5.8-7.64c-5.66-.09-5.64,5.4-5.5,7.09a.37.37,0,0,1-.43.39L1.08,24.35a.79.79,0,0,1-.56-.43l-.44-.87a.81.81,0,0,1,0-.77h0a1.67,1.67,0,0,0,.22-1.07L.11,19.36a2.18,2.18,0,0,1,.43-1.6,5.25,5.25,0,0,1,1.4-1.26s-.33-.33.73-.7S8.9,13.31,8.9,13.31l2.17-.4s-1.05.33,0,.92,7,1.31,7.89,1.31,19.22.66,19.22.66-4.14-3.07-5.82-4c0,0-.95-.42-.48-1.1l.48-.68.77.28-.45.82,6.45,4.44s3.8-.33,3.33-.61c-.18-.11.33.17.33.17s10.34.36,12.67,2.67c0,0,3.22.94,4.1,2.16s.15,3.47.15,3.47a1.07,1.07,0,0,1,.28.86c-.06.52-3.26,1.62-6.8,1.79,0,0,1.84-7-4.08-8S41.91,22.77,42.21,25.6Z"/><path class="cls-5" d="M58,21.48h.91a.37.37,0,0,1,.36.4l-.14,1.39a.56.56,0,0,1-.37.48l-.35.12A6.9,6.9,0,0,1,58,21.48Z"/><path class="cls-6" d="M6.16,17.59a3.71,3.71,0,0,1-1.11.7,20.65,20.65,0,0,1-3.9-.19.73.73,0,0,1,0-1.07,8,8,0,0,1,.77-.53,1.27,1.27,0,0,0,.68.4C3.14,17.06,6.16,17.59,6.16,17.59Z"/><path class="cls-2" d="M33.13,10.35s8.71,4,9.66,4.82a26.58,26.58,0,0,1-3.66.44l-6.38-4.25a.3.3,0,0,1-.07-.44Z"/><path class="cls-5" d="M5.13,23.53l-1.81-.22a.21.21,0,0,0-.18.34l.59.71a.21.21,0,0,0,.13.07l1.85.28a.2.2,0,0,0,.19-.33l-.64-.78A.21.21,0,0,0,5.13,23.53Z"/><path class="cls-6" d="M52.31,16.4S54.23,19,56.7,19.51a.17.17,0,0,0,.18-.25,6.26,6.26,0,0,0-1.42-1.42A5.25,5.25,0,0,0,52.31,16.4Z"/><g class="cls-7"><path class="cls-2" d="M40.3,24.33v0a55.19,55.19,0,0,0,.44-6.19c-.11-1.55-3.12-2.55-3.24-2.59l0,.07a9.52,9.52,0,0,1,1.57.7c.71.4,1.57,1,1.63,1.83a55.56,55.56,0,0,1-.44,6.14L27.75,24s-2.45,0-4.11-3.12c-1.77-3.39-1.58-4.45-.51-5.54l-.05-.05c-1.24,1.25-1.12,2.52.5,5.62a6,6,0,0,0,2.72,2.8,3.44,3.44,0,0,0,1.45.36Z"/><path class="cls-2" d="M10.65,18.37V18.3s-4.92-.77-6.85-1.14-1.94-.78-1.94-.78H1.8c0,.05.07.5,2,.86S10.6,18.37,10.65,18.37Z"/><rect class="cls-2" x="41.19" y="23.36" width="0.07" height="1.92" transform="translate(15.79 64.86) rotate(-88.43)"/><path class="cls-2" d="M51.6,19.35H55a.58.58,0,0,0,.43-.12.22.22,0,0,0,.06-.14h-.07a.12.12,0,0,1,0,.08.57.57,0,0,1-.38.1H51.6Z"/><path class="cls-2" d="M5.41,16c.84,0,3.85-.11,6.54-.21,2.1-.08,3.92-.15,4.4-.15A2.19,2.19,0,0,0,18,15L18,15a2.14,2.14,0,0,1-1.64.6L12,15.74C9,15.85,5.42,16,5.2,16c-.47-.08-.62-.46-.69-1H4.44c.08.58.24,1,.75,1.07Z"/></g><path class="cls-4" d="M37.33,16.21a.17.17,0,0,0,.16-.09.19.19,0,0,0-.07-.25L35.67,15a.18.18,0,0,0-.25.07.19.19,0,0,0,.08.25l1.74.92A.15.15,0,0,0,37.33,16.21Z"/><ellipse class="cls-4" cx="35.04" cy="14.77" rx="0.76" ry="0.9" transform="translate(10.44 43.76) rotate(-72.54)"/><circle class="cls-2" cx="47.98" cy="23.41" r="4.71"/><circle class="cls-2" cx="47.98" cy="23.46" r="4.71"/><circle class="cls-8" cx="47.91" cy="23.46" r="4.14"/><g class="cls-9"><circle class="cls-6" cx="47.93" cy="23.46" r="4.14"/></g><circle class="cls-2" cx="47.8" cy="23.46" r="1.13"/><path class="cls-10" d="M47.8,22.37a1.09,1.09,0,1,1-1.09,1.09,1.09,1.09,0,0,1,1.09-1.09m0-.07A1.16,1.16,0,1,0,49,23.46,1.16,1.16,0,0,0,47.8,22.3Z"/><circle class="cls-2" cx="12.8" cy="23.41" r="4.71"/><circle class="cls-2" cx="12.8" cy="23.46" r="4.71"/><circle class="cls-8" cx="12.73" cy="23.46" r="4.14"/><g class="cls-11"><circle class="cls-6" cx="12.76" cy="23.46" r="4.14"/></g><circle class="cls-2" cx="12.62" cy="23.46" r="1.13"/><path class="cls-10" d="M12.62,22.37a1.09,1.09,0,1,1-1.09,1.09,1.09,1.09,0,0,1,1.09-1.09m0-.07a1.16,1.16,0,1,0,1.16,1.16,1.16,1.16,0,0,0-1.16-1.16Z"/></g></svg>